<svg fill="none" height="24" viewBox="0 0 24 24" width="24" xmlns="http://www.w3.org/2000/svg"><g fill="#2d264b"><path d="m9 16.75c-.41421 0-.75-.3358-.75-.75v-5.1893l-.71967.7196c-.29289.2929-.76777.2929-1.06066 0s-.29289-.7677 0-1.0606l1-1.00003c.8415-.8415 2.28033-.24551 2.28033.94453v5.5858c0 .4142-.33579.75-.75.75z"/><path clip-rule="evenodd" d="m15 9.25c-1.5188 0-2.75 1.2312-2.75 2.75v2c0 1.5188 1.2312 2.75 2.75 2.75s2.75-1.2312 2.75-2.75v-2c0-1.5188-1.2312-2.75-2.75-2.75zm-1.25 2.75c0-.6904.5596-1.25 1.25-1.25s1.25.5596 1.25 1.25v2c0 .6904-.5596 1.25-1.25 1.25s-1.25-.5596-1.25-1.25z" fill-rule="evenodd"/><path d="m2.5127.996654c.00185-.414209.33913-.748494.75334-.746646s.7485.339129.74665.753342l-.00886 1.98571c-.00361.80942-.0049 1.35311.04002 1.76445l.00169.01526c.45644-.50181.95973-.96023 1.50298-1.36839 1.79692-1.35006 4.03182-2.15038 6.45148-2.15038 5.9371 0 10.75 4.81294 10.75 10.75 0 5.9371-4.8129 10.75-10.75 10.75-5.93706 0-10.75-4.8129-10.75-10.75 0-.4142.33579-.75.75-.75s.75.3358.75.75c0 5.1086 4.14137 9.25 9.25 9.25 5.1086 0 9.25-4.1414 9.25-9.25 0-5.10863-4.1414-9.25-9.25-9.25-2.08364 0-4.00441.68804-5.55047 1.84962-.49898.37489-.95886.79909-1.37236 1.26532.02834.00379.05794.00738.08887.01076.41134.04492.95503.04363 1.76445.04002l1.98571-.00886c.41421-.00185.75149.33244.75334.74665s-.33243.75149-.74664.75334l-2.02904.00905c-.75487.00339-1.38447.00621-1.89066-.04906-.53093-.05798-1.02026-.18758-1.44534-.51655-.06778-.05245-.13299-.10802-.19544-.1665-.10604-.0993-.20408-.20699-.29316-.3221-.32897-.42508-.45857-.91441-.51655-1.44534-.05527-.50618-.05245-1.13575-.04906-1.89062z"/></g></svg>