<svg fill="none" height="24" viewBox="0 0 24 24" width="24" xmlns="http://www.w3.org/2000/svg"><path d="m6.46967 10.4697c-.29289.2929-.29289.7677 0 1.0606s.76777.2929 1.06066 0zm1.78033 5.5303c0 .4142.33579.75.75.75s.75-.3358.75-.75zm14.5-4c0-.4142-.3358-.75-.75-.75s-.75.3358-.75.75zm-4.749-8-.4505.59962zm1.999 1.99903-.5996.4505.0211.02812.0237.02602zm1.4873-5.002376c-.0019-.41421-.3391-.748495-.7533-.746647-.4143.001849-.7485.33913-.7467.753343zm-.7411 1.989056.75-.00334zm-3.68 3.68-.0034.75zm-1.9824-.75885c-.4142-.00185-.7515.33244-.7533.74665-.0019.41421.3324.75149.7466.75334zm5.2538-.00419.5931.45902zm-.3545.3545.459.59312zm-11.7331 4.15703v5.5858h1.5v-5.5858zm8 1.5858v2h1.5v-2zm-2.5 2v-2h-1.5v2zm1.25 1.25c-.6904 0-1.25-.5596-1.25-1.25h-1.5c0 1.5188 1.2312 2.75 2.75 2.75zm1.25-1.25c0 .6904-.5596 1.25-1.25 1.25v1.5c1.5188 0 2.75-1.2312 2.75-2.75zm-1.25-3.25c.6904 0 1.25.5596 1.25 1.25h1.5c0-1.5188-1.2312-2.75-2.75-2.75zm0-1.5c-1.5188 0-2.75 1.2312-2.75 2.75h1.5c0-.6904.5596-1.25 1.25-1.25zm6.25 2.75c0 5.1086-4.1414 9.25-9.25 9.25v1.5c5.9371 0 10.75-4.8129 10.75-10.75zm-9.25 9.25c-5.10863 0-9.25-4.1414-9.25-9.25h-1.5c0 5.9371 4.81294 10.75 10.75 10.75zm-9.25-9.25c0-5.10863 4.14137-9.25 9.25-9.25v-1.5c-5.93706 0-10.75 4.81294-10.75 10.75zm9.25-9.25c2.0836 0 4.0044.68804 5.5505 1.84962l.901-1.19924c-1.7969-1.35006-4.0318-2.15038-6.4515-2.15038zm5.5505 1.84962c.7003.5262 1.3237 1.14954 1.8499 1.84991l1.1992-.90101c-.611-.81333-1.3348-1.53707-2.1481-2.14814zm2.4368-3.59627.0089 1.98571 1.5-.00669-.0089-1.985716zm-2.9178 4.91237-1.9857-.00886-.0067 1.49999 1.9857.00886zm2.9267-2.92666c.0036.80942.0049 1.35311-.04 1.76445-.0433.39625-.1215.57362-.2117.69014l1.1862.91804c.329-.42508.4586-.91441.5166-1.44534.0563-.51585.0523-1.15984.0489-1.93398zm-2.9334 4.42665c.7742.00345 1.4182.00746 1.934-.04887.5309-.05798 1.0203-.18758 1.4453-.51655l-.918-1.18625c-.1165.09017-.2939.16839-.6901.21166-.4114.04492-.9551.04363-1.7645.04002zm2.6817-1.97206c-.0402.05193-.0844.1005-.1322.14528l1.0253 1.09486c.106-.0993.2041-.20699.2931-.3221zm-.1322.14528c-.0282.02638-.0576.05144-.0882.07511l.918 1.18625c.0678-.05245.133-.10802.1955-.1665zm-.1671.91474.1249.13734 1.1096-1.00929-.1249-.13734zm-11.97553 2.966-1 1.00003 1.06066 1.0606 1-1zm2.28033.94453c0-1.19004-1.43883-1.78603-2.28033-.94453l1.06066 1.06063c-.0184.0184-.0508.0375-.09038.0443-.03548.0062-.06566.0008-.08858-.0087s-.04806-.027-.0688-.0564c-.02313-.0329-.03257-.0693-.03257-.0953z" fill="#2d264b"/></svg>